<?xml version="1.0" encoding="UTF-8" standalone="no"?>
<!DOCTYPE svg PUBLIC "-//W3C//DTD SVG 1.1//EN" "http://www.w3.org/Graphics/SVG/1.1/DTD/svg11.dtd">
<svg width="100%" height="100%" viewBox="0 0 1000 1000" version="1.1" xmlns="http://www.w3.org/2000/svg" xmlns:xlink="http://www.w3.org/1999/xlink" xml:space="preserve" xmlns:serif="http://www.serif.com/" style="fill-rule:evenodd;clip-rule:evenodd;stroke-linejoin:round;stroke-miterlimit:2;">
    <g id="Layer1" transform="matrix(2.133848,0.163968,-0.163968,2.133848,112.701188,-1193.317083)">
        <g transform="matrix(0.648484,-0.04983,-0.072403,0.657877,-42.584551,444.299637)">
            <text x="165px" y="899px" style="font-family:'Helvetica-Oblique', 'Helvetica';font-style:italic;font-size:1146.154px;">L</text>
        </g>
        <g transform="matrix(1,0,0,1,-352,-20)">
            <path d="M566,918L546,923L533,897L517,877L503,845L498,831L497,815L526,785L536,797L539,799L554,788L569,818L534,833L530,834L547,860L550,878L566,918" style="fill:rgb(227,202,186);"/>
        </g>
        <g transform="matrix(1,0,0,1,-353,-18)">
            <path d="M614,839L625,850L635,853L642,855L651,855L652,875L668,872L685,875L724,877L719,885L718,892L718,898L690,905L677,909L657,909L647,913L640,910L630,910L618,897L614,876L612,858L614,839Z" style="fill:rgb(227,202,186);"/>
        </g>
        <g transform="matrix(1,0,0,1,-351,-19)">
            <path d="M547,923L566,918L574,934L566,940L560,940L553,935L548,929L547,923Z" style="fill:rgb(207,223,244);"/>
        </g>
        <g transform="matrix(1,0,0,1,-353,-18)">
            <path d="M723,877L719,886L718,897L726,902L737,894L738,879L723,877Z" style="fill:rgb(207,223,244);"/>
        </g>
        <g transform="matrix(1,0,0,1,-353,-18)">
            <path d="M553,936L527,953L513,957L511,961L513,966L516,971L539,971L563,967L591,960L588,951L579,932L574,933L568,937L564,939L559,940L553,936Z" style="fill:rgb(201,224,174);"/>
        </g>
        <g transform="matrix(1,0,0,1,-352,-18)">
            <path d="M526,785L538,798L554,787L570,818L585,836L598,820L625,849L642,855L653,854L650,813L651,798L655,781L653,769L650,757L632,756L617,753L574,752L526,785" style="fill:rgb(128,128,128);"/>
        </g>
        <g transform="matrix(1,0,0,1,-353,-18)">
            <path d="M739,879L738,893L728,901L730,923L726,935L720,941L722,945L723,950L735,947L745,944L757,945L761,942L763,924L764,911L768,904C768,904 768.139,887.059 768,887C767.861,886.941 753,877 753,877L739,879" style="fill:rgb(201,224,174);"/>
        </g>
        <g transform="matrix(1,0,0,1,-353,-16)">
            <path d="M520,664L535,674L543,677L553,670L576,741L575,750L650,756L640,740L637,700L628,681L624,673L625,666L632,665L609,629L579,616L562,615L541,625L520,664" style="fill:rgb(130,173,244);"/>
        </g>
        <g transform="matrix(1,0,0,1,-353,-18)">
            <path d="M514,650L504,651L496,642L493,635L493,617L508,598L530,599L542,609L549,611L547,618L541,621L534,619L529,621L526,627L529,633L533,636L531,644L525,640L520,640L516,645L514,650Z" style="fill:rgb(128,130,134);"/>
        </g>
        <g transform="matrix(1,0,0,1,-353,-18)">
            <path d="M519,664L510,673L507,690L515,698L521,697L538,676L519,664Z" style="fill:rgb(213,196,187);"/>
        </g>
        <g transform="matrix(1,0,0,1,-353,-18)">
            <path d="M631,666L639,680L642,689L642,694L639,697L636,697L625,675L625,666L631,666Z" style="fill:rgb(213,196,187);"/>
        </g>
        <g transform="matrix(1,0,0,1,-353,-18)">
            <path d="M565,615L549,612L547,618L542,621L537,621L533,620L530,621L528,625L529,630L530,633L534,637L540,628L541,625L565,615" style="fill:rgb(213,196,187);"/>
        </g>
        <g transform="matrix(1,0,0,1,-353,-18)">
            <path d="M525,653L513,649L518,644L520,640L526,640L532,644L525,653Z" style="fill:rgb(213,196,187);"/>
        </g>
    </g>
</svg>
