<?xml version="1.0" encoding="UTF-8" standalone="no"?><!DOCTYPE svg PUBLIC "-//W3C//DTD SVG 1.1//EN" "http://www.w3.org/Graphics/SVG/1.1/DTD/svg11.dtd"><svg width="100%" height="100%" viewBox="0 0 1000 1000" version="1.1" xmlns="http://www.w3.org/2000/svg" xmlns:xlink="http://www.w3.org/1999/xlink" xml:space="preserve" xmlns:serif="http://www.serif.com/" style="fill-rule:evenodd;clip-rule:evenodd;stroke-linejoin:round;stroke-miterlimit:2;"><g id="Layer1"><g transform="matrix(1,0,-0.188491,1,-47.543518,-0)"><text x="178.651px" y="999.119px" style="font-family:'Helvetica-Oblique', 'Helvetica';font-style:italic;font-size:1595.374px;">L</text></g><path d="M422.101,757.967l-43.497,7.39l-23.477,-57.612l-30.862,-45.3l-24.627,-70.579l-8.374,-30.694l0.49,-34.306l66.801,-59.26l19.371,27.246l6.074,4.76l33.811,-21.013l27.089,66.475l-77.144,26.269l-8.699,1.478l32.012,58.267l3.45,38.901l27.583,87.977" style="fill:#af7c5d;"/><path d="M535.018,601.367l21.669,25.276l20.847,8.041l14.609,5.415l19.205,1.476l-1.146,42.841l34.633,-3.778l35.784,9.189l82.892,10.662l-11.981,16.251l-3.282,14.773l-0.984,12.803l-60.896,10.346l-28.396,6.404l-42.677,-3.279l-21.994,6.896l-14.445,-7.549l-21.338,-1.64l-23.475,-29.708l-5.092,-45.467l-1.316,-38.737l7.383,-40.215Z" style="fill:#af7c5d;"/><path d="M382.708,767.819l41.363,-7.554l14.447,35.453l-18.055,11.491l-12.803,-0.984l-14.117,-11.817l-9.685,-13.623l-1.15,-12.967Z" style="fill:#acc9ee;"/><path d="M761.376,700.326l-10.011,18.549l-3.937,23.308l16.251,11.981l24.784,-15.267l4.593,-31.844l-31.68,-6.727Z" style="fill:#acc9ee;"/><path d="M388.948,798.349l-58.267,32.012l-30.53,6.24l-4.924,8.207l3.448,10.997l5.582,11.161l49.078,3.771l51.868,-4.6l60.896,-10.346l-4.926,-19.697l-16.089,-42.019l-10.833,1.314l-13.459,7.552l-8.863,3.612l-10.833,1.314l-12.147,-9.519Z" style="fill:#bef86b;"/><path d="M358.227,471.874l23.475,29.708l35.945,-20.849l29.059,68.773l29.056,40.869l30.364,-32.01l52.859,66.309l35.292,15.591l23.636,-0.33l0.321,-87.98l4.593,-31.844l11.323,-35.62l-2.3,-25.934l-4.434,-26.098l-38.245,-5.085l-31.516,-8.861l-91.591,-9.184l-107.836,62.547" style="fill:#0b0b13;"/><path d="M795.19,707.217l-4.429,29.71l-22.65,15.431l0.66,47.273l-10.503,24.95l-13.787,11.819l3.612,8.863l1.314,10.833l26.098,-4.434l21.83,-4.762l25.442,4.101l9.027,-5.746l7.219,-38.081l4.265,-27.576l9.683,-14.281c0,0 3.075,-36.126 2.787,-36.275c-0.287,-0.149 -30.368,-23.798 -30.368,-23.798l-30.202,1.972" style="fill:#bef86b;"/><path d="M362.803,216.799l30.368,23.798l16.579,7.713l22.486,-13.297l37.437,155.274l-3.61,19.041l159.055,25.101l-18.715,-35.781l0.157,-85.846l-16.089,-42.019l-7.224,-17.727l3.282,-14.773l15.101,-0.986l-43.176,-80.59l-61.884,-32.659l-36.111,-4.921l-46.45,17.895l-51.206,79.777" style="fill:#0e60da;"/><path d="M352.623,181.673l-21.502,0.494l-15.595,-20.516l-5.254,-15.429l2.951,-38.409l35.123,-38.084l46.781,5.741l23.966,23.306l14.609,5.415l-5.415,14.609l-13.295,5.418l-14.609,-5.415l-10.997,3.448l-7.385,12.311l5.418,13.295l8.043,7.057l-5.579,16.743l-12.147,-9.519l-10.669,-0.82l-9.355,10.013l-5.088,10.341Z"/><path d="M360.997,212.367l-20.68,17.729l-9.189,35.784l15.759,18.383l12.967,-1.15l39.719,-42.023l-38.575,-28.722Z" style="fill:#af7c5d;"/><path d="M599.66,234.999l14.775,31.186l4.926,19.697l-0.82,10.669l-6.893,5.91l-6.402,-0.492l-19.865,-48.748l1.476,-19.205l12.803,0.984Z" style="fill:#af7c5d;"/><path d="M467.188,115.351l-33.65,-9.025l-5.252,12.475l-11.161,5.582l-10.669,-0.82l-8.371,-2.79l-6.566,1.642l-4.924,8.207l1.314,10.833l1.642,6.566l7.88,9.191l14.279,-18.221l2.626,-6.238l52.852,-17.403" style="fill:#af7c5d;"/><path d="M375.603,189.879l-24.95,-10.503l11.489,-9.849l4.924,-8.207l12.803,0.984l12.147,9.519l-16.413,18.057Z" style="fill:#af7c5d;"/></g></svg>